<svg width="1600" height="420" viewBox="0 0 1600 420" fill="none" xmlns="http://www.w3.org/2000/svg">
  <rect width="1600" height="420" fill="#F5F7FA"/>
  <rect x="28" y="28" width="1544" height="364" rx="20" fill="#FBFCFE" stroke="#D7DEE8" stroke-width="2"/>
  <path d="M96 322H1504" stroke="#D7DEE8" stroke-width="2"/>
  <path d="M560 92H1488" stroke="#D7DEE8" stroke-width="2"/>
  <path d="M560 226H1488" stroke="#D7DEE8" stroke-width="2"/>

  <rect x="92" y="92" width="380" height="180" rx="18" fill="#0F2742"/>
  <rect x="128" y="126" width="72" height="72" rx="10" fill="#F5F7FA"/>
  <rect x="266" y="110" width="40" height="40" rx="6" fill="#8FA8C1"/>
  <rect x="322" y="110" width="40" height="40" rx="6" fill="#8FA8C1"/>
  <rect x="266" y="166" width="40" height="40" rx="6" fill="#8FA8C1"/>
  <rect x="322" y="166" width="40" height="40" rx="6" fill="#8FA8C1"/>
  <rect x="388" y="184" width="42" height="42" rx="8" fill="#53A2A0"/>
  <path d="M200 162H246" stroke="#D7DEE8" stroke-width="6" stroke-linecap="round"/>
  <path d="M246 130V186" stroke="#D7DEE8" stroke-width="6" stroke-linecap="round"/>
  <path d="M246 130H266" stroke="#D7DEE8" stroke-width="6" stroke-linecap="round"/>
  <path d="M246 186H266" stroke="#D7DEE8" stroke-width="6" stroke-linecap="round"/>
  <path d="M306 130H322" stroke="#D7DEE8" stroke-width="6" stroke-linecap="round"/>
  <path d="M306 186H322" stroke="#D7DEE8" stroke-width="6" stroke-linecap="round"/>
  <path d="M362 186H374V205H388" stroke="#D7DEE8" stroke-width="6" stroke-linecap="round" stroke-linejoin="round"/>
  <text x="282" y="240" fill="#F5F7FA" font-family="Avenir Next, Helvetica, Arial, sans-serif" font-size="18" letter-spacing="1.8" text-anchor="middle">SHARED FOUNDATION</text>

  <text x="560" y="150" fill="#0F2742" font-family="Baskerville, Georgia, serif" font-size="68" font-weight="600">One Person Lab</text>
  <text x="562" y="190" fill="#516275" font-family="Avenir Next, Helvetica, Arial, sans-serif" font-size="24" letter-spacing="2.6">AGENT-FIRST, HUMAN-AUDITABLE RESEARCH LAB BLUEPRINT</text>
  <text x="562" y="254" fill="#0F2742" font-family="Avenir Next, Helvetica, Arial, sans-serif" font-size="22" font-weight="600">Task Topology</text>
  <text x="742" y="254" fill="#0F2742" font-family="Avenir Next, Helvetica, Arial, sans-serif" font-size="22" font-weight="600">Shared Foundation</text>
  <text x="984" y="254" fill="#0F2742" font-family="Avenir Next, Helvetica, Arial, sans-serif" font-size="22" font-weight="600">Project Matrix</text>
  <text x="1235" y="254" fill="#0F2742" font-family="Avenir Next, Helvetica, Arial, sans-serif" font-size="22" font-weight="600">Public Entry</text>

  <rect x="560" y="106" width="18" height="18" rx="4" fill="#53A2A0"/>
  <rect x="560" y="292" width="190" height="60" rx="12" fill="#0F2742"/>
  <rect x="768" y="292" width="144" height="60" rx="12" fill="#ECF1F6" stroke="#C5D0DC" stroke-width="2"/>
  <rect x="930" y="292" width="150" height="60" rx="12" fill="#ECF1F6" stroke="#C5D0DC" stroke-width="2"/>
  <rect x="1098" y="292" width="160" height="60" rx="12" fill="#ECF1F6" stroke="#C5D0DC" stroke-width="2"/>
  <rect x="1276" y="292" width="210" height="60" rx="12" fill="#ECF1F6" stroke="#C5D0DC" stroke-width="2"/>

  <text x="655" y="318" fill="#9AB9D4" font-family="Avenir Next, Helvetica, Arial, sans-serif" font-size="13" letter-spacing="1.4" text-anchor="middle">ACTIVE</text>
  <text x="655" y="344" fill="#F5F7FA" font-family="Avenir Next, Helvetica, Arial, sans-serif" font-size="24" font-weight="600" text-anchor="middle">Research Ops</text>
  <text x="840" y="318" fill="#6F8194" font-family="Avenir Next, Helvetica, Arial, sans-serif" font-size="13" letter-spacing="1.4" text-anchor="middle">PLANNED</text>
  <text x="840" y="344" fill="#0F2742" font-family="Avenir Next, Helvetica, Arial, sans-serif" font-size="22" font-weight="600" text-anchor="middle">Grant Ops</text>
  <text x="1005" y="318" fill="#6F8194" font-family="Avenir Next, Helvetica, Arial, sans-serif" font-size="13" letter-spacing="1.4" text-anchor="middle">PLANNED</text>
  <text x="1005" y="344" fill="#0F2742" font-family="Avenir Next, Helvetica, Arial, sans-serif" font-size="22" font-weight="600" text-anchor="middle">Thesis Ops</text>
  <text x="1178" y="318" fill="#6F8194" font-family="Avenir Next, Helvetica, Arial, sans-serif" font-size="13" letter-spacing="1.4" text-anchor="middle">PLANNED</text>
  <text x="1178" y="344" fill="#0F2742" font-family="Avenir Next, Helvetica, Arial, sans-serif" font-size="22" font-weight="600" text-anchor="middle">Review Ops</text>
  <text x="1381" y="318" fill="#6F8194" font-family="Avenir Next, Helvetica, Arial, sans-serif" font-size="13" letter-spacing="1.4" text-anchor="middle">PLANNED</text>
  <text x="1381" y="344" fill="#0F2742" font-family="Avenir Next, Helvetica, Arial, sans-serif" font-size="20" font-weight="600" text-anchor="middle">Presentation Ops</text>
</svg>
