<svg width="1600" height="420" viewBox="0 0 1600 420" fill="none" xmlns="http://www.w3.org/2000/svg">
  <rect width="1600" height="420" fill="#F5F7FA"/>
  <rect x="28" y="28" width="1544" height="364" rx="20" fill="#FBFCFE" stroke="#D7DEE8" stroke-width="2"/>
  <path d="M96 322H1504" stroke="#D7DEE8" stroke-width="2"/>
  <path d="M560 92H1488" stroke="#D7DEE8" stroke-width="2"/>
  <path d="M560 226H1488" stroke="#D7DEE8" stroke-width="2"/>

  <rect x="92" y="92" width="380" height="180" rx="18" fill="#0F2742"/>
  <rect x="128" y="128" width="62" height="62" rx="8" fill="#F5F7FA"/>
  <rect x="252" y="108" width="44" height="44" rx="6" fill="#8FA8C1"/>
  <rect x="334" y="108" width="44" height="44" rx="6" fill="#8FA8C1"/>
  <rect x="252" y="166" width="44" height="44" rx="6" fill="#8FA8C1"/>
  <rect x="334" y="166" width="44" height="44" rx="6" fill="#8FA8C1"/>
  <rect x="293" y="230" width="44" height="44" rx="6" fill="#53A2A0"/>
  <path d="M190 159H252" stroke="#D7DEE8" stroke-width="6" stroke-linecap="round"/>
  <path d="M296 152V108" stroke="#D7DEE8" stroke-width="6" stroke-linecap="round"/>
  <path d="M334 152V108" stroke="#D7DEE8" stroke-width="6" stroke-linecap="round"/>
  <path d="M296 210V230" stroke="#D7DEE8" stroke-width="6" stroke-linecap="round"/>
  <path d="M334 210V230" stroke="#D7DEE8" stroke-width="6" stroke-linecap="round"/>
  <path d="M296 188H252" stroke="#D7DEE8" stroke-width="6" stroke-linecap="round"/>
  <path d="M334 188H378" stroke="#D7DEE8" stroke-width="6" stroke-linecap="round"/>
  <text x="128" y="236" fill="#F5F7FA" font-family="Avenir Next, Helvetica, Arial, sans-serif" font-size="18" letter-spacing="2">SHARED FOUNDATION</text>

  <text x="560" y="150" fill="#0F2742" font-family="Baskerville, Georgia, serif" font-size="68" font-weight="600">One Person Lab</text>
  <text x="562" y="190" fill="#516275" font-family="Avenir Next, Helvetica, Arial, sans-serif" font-size="24" letter-spacing="2.6">AGENT-FIRST, HUMAN-AUDITABLE RESEARCH LAB BLUEPRINT</text>
  <text x="562" y="254" fill="#0F2742" font-family="Avenir Next, Helvetica, Arial, sans-serif" font-size="22" font-weight="600">Task Topology</text>
  <text x="742" y="254" fill="#0F2742" font-family="Avenir Next, Helvetica, Arial, sans-serif" font-size="22" font-weight="600">Shared Foundation</text>
  <text x="984" y="254" fill="#0F2742" font-family="Avenir Next, Helvetica, Arial, sans-serif" font-size="22" font-weight="600">Project Matrix</text>
  <text x="1235" y="254" fill="#0F2742" font-family="Avenir Next, Helvetica, Arial, sans-serif" font-size="22" font-weight="600">Public Entry</text>

  <rect x="560" y="106" width="18" height="18" rx="4" fill="#53A2A0"/>
  <rect x="560" y="292" width="190" height="60" rx="12" fill="#0F2742"/>
  <rect x="770" y="292" width="164" height="60" rx="12" fill="#ECF1F6" stroke="#C5D0DC" stroke-width="2"/>
  <rect x="954" y="292" width="164" height="60" rx="12" fill="#ECF1F6" stroke="#C5D0DC" stroke-width="2"/>
  <rect x="1138" y="292" width="164" height="60" rx="12" fill="#ECF1F6" stroke="#C5D0DC" stroke-width="2"/>
  <rect x="1322" y="292" width="164" height="60" rx="12" fill="#ECF1F6" stroke="#C5D0DC" stroke-width="2"/>

  <text x="585" y="318" fill="#9AB9D4" font-family="Avenir Next, Helvetica, Arial, sans-serif" font-size="13" letter-spacing="1.4">ACTIVE</text>
  <text x="585" y="344" fill="#F5F7FA" font-family="Avenir Next, Helvetica, Arial, sans-serif" font-size="24" font-weight="600">Research Ops</text>
  <text x="798" y="318" fill="#6F8194" font-family="Avenir Next, Helvetica, Arial, sans-serif" font-size="13" letter-spacing="1.4">PLANNED</text>
  <text x="798" y="344" fill="#0F2742" font-family="Avenir Next, Helvetica, Arial, sans-serif" font-size="24" font-weight="600">Grant Ops</text>
  <text x="980" y="318" fill="#6F8194" font-family="Avenir Next, Helvetica, Arial, sans-serif" font-size="13" letter-spacing="1.4">PLANNED</text>
  <text x="980" y="344" fill="#0F2742" font-family="Avenir Next, Helvetica, Arial, sans-serif" font-size="24" font-weight="600">Thesis Ops</text>
  <text x="1166" y="318" fill="#6F8194" font-family="Avenir Next, Helvetica, Arial, sans-serif" font-size="13" letter-spacing="1.4">PLANNED</text>
  <text x="1166" y="344" fill="#0F2742" font-family="Avenir Next, Helvetica, Arial, sans-serif" font-size="24" font-weight="600">Review Ops</text>
  <text x="1347" y="318" fill="#6F8194" font-family="Avenir Next, Helvetica, Arial, sans-serif" font-size="13" letter-spacing="1.4">PLANNED</text>
  <text x="1347" y="344" fill="#0F2742" font-family="Avenir Next, Helvetica, Arial, sans-serif" font-size="22" font-weight="600">Presentation Ops</text>
</svg>
