<svg width="1600" height="420" viewBox="0 0 1600 420" fill="none" xmlns="http://www.w3.org/2000/svg" role="img" aria-label="One Person Lab banner">
  <title>One Person Lab banner</title>
  <defs>
    <linearGradient id="banner-bg" x1="0" y1="0" x2="1600" y2="420" gradientUnits="userSpaceOnUse">
      <stop offset="0" stop-color="#F7FBFF"/>
      <stop offset="0.62" stop-color="#EEF6FF"/>
      <stop offset="1" stop-color="#EAF8F7"/>
    </linearGradient>
    <linearGradient id="icon-bg" x1="160" y1="100" x2="330" y2="330" gradientUnits="userSpaceOnUse">
      <stop offset="0" stop-color="#FFFFFF"/>
      <stop offset="0.55" stop-color="#F7FBFF"/>
      <stop offset="1" stop-color="#E2F1FF"/>
    </linearGradient>
    <filter id="soft-shadow" x="-40" y="-40" width="1680" height="500" filterUnits="userSpaceOnUse" color-interpolation-filters="sRGB">
      <feDropShadow dx="0" dy="16" stdDeviation="22" flood-color="#173A5D" flood-opacity="0.12"/>
    </filter>
  </defs>
  <rect width="1600" height="420" fill="url(#banner-bg)"/>
  <rect x="44" y="40" width="1512" height="340" rx="34" fill="#FFFFFF" fill-opacity="0.82" stroke="#D5E3F2" stroke-width="2"/>
  <g transform="translate(115 92) scale(0.236)">
    <rect width="1024" height="1024" rx="220" fill="url(#icon-bg)"/>
    <path d="M512 154C328.642 154 180 302.642 180 486C180 669.358 328.642 818 512 818C695.358 818 844 669.358 844 486" stroke="#0E385D" stroke-width="52" stroke-linecap="round"/>
    <path d="M512 248C380.556 248 274 354.556 274 486C274 617.444 380.556 724 512 724C643.444 724 750 617.444 750 486" stroke="#2BB8B0" stroke-width="46" stroke-linecap="round"/>
    <circle cx="512" cy="486" r="112" fill="#0E385D"/>
    <circle cx="512" cy="486" r="50" fill="#7CE8E0"/>
    <circle cx="320" cy="324" r="40" fill="#2BB8B0"/>
    <circle cx="724" cy="324" r="40" fill="#F3B44B"/>
    <circle cx="724" cy="664" r="40" fill="#7CA7FF"/>
    <path d="M358 358L450 444" stroke="#0E385D" stroke-width="30" stroke-linecap="round"/>
    <path d="M688 358L590 448" stroke="#0E385D" stroke-width="30" stroke-linecap="round"/>
    <path d="M688 632L590 532" stroke="#0E385D" stroke-width="30" stroke-linecap="round"/>
    <rect x="278" y="862" width="468" height="40" rx="20" fill="#0E385D" fill-opacity="0.14"/>
    <rect x="368" y="842" width="288" height="40" rx="20" fill="#0E385D" fill-opacity="0.25"/>
  </g>
  <text x="448" y="126" fill="#0D2A45" font-family="Inter, Avenir Next, Helvetica, Arial, sans-serif" font-size="23" font-weight="700" letter-spacing="3">ONE PERSON LAB</text>
  <text x="448" y="186" fill="#0D2A45" font-family="Inter, Avenir Next, Helvetica, Arial, sans-serif" font-size="48" font-weight="800">One workbench for serious expert work</text>
  <text x="450" y="232" fill="#49677F" font-family="Inter, Avenir Next, Helvetica, Arial, sans-serif" font-size="23">Plan long-running research, grants, and presentations with domain agents,</text>
  <text x="450" y="264" fill="#49677F" font-family="Inter, Avenir Next, Helvetica, Arial, sans-serif" font-size="23">trusted progress, and organized deliverables.</text>
  <g font-family="Inter, Avenir Next, Helvetica, Arial, sans-serif" font-size="17" font-weight="700">
    <rect x="450" y="304" width="166" height="44" rx="22" fill="#EAF3FF" stroke="#BBD2EC"/>
    <text x="533" y="332" text-anchor="middle" fill="#174A73">Research</text>
    <rect x="632" y="304" width="136" height="44" rx="22" fill="#FFF4DD" stroke="#E3C27B"/>
    <text x="700" y="332" text-anchor="middle" fill="#8A6415">Grants</text>
    <rect x="784" y="304" width="178" height="44" rx="22" fill="#E8FAF8" stroke="#AADAD6"/>
    <text x="873" y="332" text-anchor="middle" fill="#247A75">Presentations</text>
    <rect x="978" y="304" width="162" height="44" rx="22" fill="#F1F5FA" stroke="#CAD6E4"/>
    <text x="1059" y="332" text-anchor="middle" fill="#3E5D78">Progress</text>
    <rect x="1156" y="304" width="132" height="44" rx="22" fill="#F1F5FA" stroke="#CAD6E4"/>
    <text x="1222" y="332" text-anchor="middle" fill="#3E5D78">Files</text>
    <rect x="1304" y="304" width="164" height="44" rx="22" fill="#F1F5FA" stroke="#CAD6E4"/>
    <text x="1386" y="332" text-anchor="middle" fill="#3E5D78">Recovery</text>
  </g>
</svg>
